<svg width="142" height="34" viewBox="0 0 142 34" fill="none" xmlns="http://www.w3.org/2000/svg">
<g clip-path="url(#clip0_4_154)">
<path d="M43.2864 23.3339H53.1979V20.3486H46.8092V9.1037H43.2864V23.3339Z" fill="#050729"/>
<path d="M59.07 21.3437C57.6569 21.3437 56.9205 20.1098 56.9205 18.2589C56.9205 16.4079 57.6569 15.1541 59.07 15.1541C60.483 15.1541 61.2393 16.4079 61.2393 18.2589C61.2393 20.1098 60.483 21.3437 59.07 21.3437ZM59.0899 23.6524C62.3738 23.6524 64.5232 21.3238 64.5232 18.2589C64.5232 15.1939 62.3738 12.8653 59.0899 12.8653C55.8259 12.8653 53.6366 15.1939 53.6366 18.2589C53.6366 21.3238 55.8259 23.6524 59.0899 23.6524Z" fill="#050729"/>
<path d="M70.2075 26.8567C71.7201 26.8567 73.0535 26.5183 73.9491 25.7222C74.7651 24.9858 75.3025 23.8713 75.3025 22.3388V13.1439H72.1977V14.2385H72.1579C71.5608 13.3827 70.6453 12.8453 69.292 12.8453C66.7644 12.8453 65.0129 14.955 65.0129 17.9404C65.0129 21.065 67.1425 22.7767 69.4313 22.7767C70.6652 22.7767 71.4414 22.2791 72.0385 21.6024H72.1181V22.6174C72.1181 23.8514 71.5409 24.5679 70.1677 24.5679C69.0929 24.5679 68.5556 24.1101 68.3765 23.5728H65.2319C65.5503 25.7023 67.4012 26.8567 70.2075 26.8567ZM70.1876 20.3685C68.9735 20.3685 68.1774 19.3733 68.1774 17.8408C68.1774 16.2885 68.9735 15.2933 70.1876 15.2933C71.5409 15.2933 72.2574 16.4477 72.2574 17.8209C72.2574 19.2539 71.6006 20.3685 70.1876 20.3685Z" fill="#050729"/>
<path d="M81.6864 21.3437C80.2734 21.3437 79.537 20.1098 79.537 18.2589C79.537 16.4079 80.2734 15.1541 81.6864 15.1541C83.0995 15.1541 83.8558 16.4079 83.8558 18.2589C83.8558 20.1098 83.0995 21.3437 81.6864 21.3437ZM81.7064 23.6524C84.9903 23.6524 87.1397 21.3238 87.1397 18.2589C87.1397 15.1939 84.9903 12.8653 81.7064 12.8653C78.4424 12.8653 76.2531 15.1939 76.2531 18.2589C76.2531 21.3238 78.4424 23.6524 81.7064 23.6524Z" fill="#050729"/>
<path d="M88.0867 23.3339H91.3308V13.1439H88.0867V23.3339ZM88.0867 11.7308H91.3308V9.1037H88.0867V11.7308Z" fill="#050729"/>
<path d="M92.7389 26.6974H95.983V22.2791H96.0228C96.6597 23.1349 97.5951 23.6524 98.9087 23.6524C101.576 23.6524 103.347 21.5427 103.347 18.2389C103.347 15.1739 101.695 12.8453 98.9883 12.8453C97.5951 12.8453 96.6 13.4623 95.9034 14.3778H95.8437V13.1439H92.7389V26.6974ZM98.0728 21.1447C96.6796 21.1447 95.8835 20.0102 95.8835 18.3583C95.8835 16.7064 96.6 15.4526 98.0131 15.4526C99.4062 15.4526 100.063 16.6069 100.063 18.3583C100.063 20.0898 99.3067 21.1447 98.0728 21.1447Z" fill="#050729"/>
<path d="M108.629 23.6524C111.295 23.6524 113.266 22.498 113.266 20.2689C113.266 17.6617 111.156 17.204 109.365 16.9054C108.071 16.6666 106.917 16.5671 106.917 15.8506C106.917 15.2137 107.534 14.9152 108.33 14.9152C109.226 14.9152 109.843 15.1938 109.962 16.1093H112.947C112.788 14.0992 111.236 12.8453 108.35 12.8453C105.942 12.8453 103.951 13.9599 103.951 16.1093C103.951 18.4976 105.842 18.9753 107.614 19.2738C108.967 19.5127 110.201 19.6122 110.201 20.5277C110.201 21.1845 109.584 21.5427 108.609 21.5427C107.534 21.5427 106.857 21.0451 106.738 20.0301H103.673C103.772 22.2791 105.643 23.6524 108.629 23.6524Z" fill="#050729"/>
<path d="M117.673 23.6325C119.086 23.6325 119.981 23.0752 120.718 22.0801H120.777V23.334H123.882V13.1439H120.638V18.836C120.638 20.0501 119.961 20.886 118.847 20.886C117.812 20.886 117.314 20.269 117.314 19.1545V13.1439H114.09V19.8311C114.09 22.1 115.324 23.6325 117.673 23.6325Z" fill="#050729"/>
<path d="M125.293 23.3339H128.537V17.6219C128.537 16.4079 129.134 15.5521 130.149 15.5521C131.124 15.5521 131.582 16.1889 131.582 17.2836V23.3339H134.826V17.6219C134.826 16.4079 135.403 15.5521 136.438 15.5521C137.413 15.5521 137.871 16.1889 137.871 17.2836V23.3339H141.115V16.7064C141.115 14.4176 139.961 12.8453 137.652 12.8453C136.339 12.8453 135.244 13.4026 134.448 14.6366H134.408C133.891 13.5419 132.876 12.8453 131.542 12.8453C130.069 12.8453 129.094 13.5419 128.457 14.5968H128.397V13.1439H125.293V23.3339Z" fill="#050729"/>
<path fill-rule="evenodd" clip-rule="evenodd" d="M17.4332 33.2851C26.593 33.2851 34.0185 25.8596 34.0185 16.6998C34.0185 7.53997 26.593 0.114441 17.4332 0.114441C8.27329 0.114441 0.847778 7.53997 0.847778 16.6998C0.847778 25.8596 8.27329 33.2851 17.4332 33.2851ZM22.6072 7.8406C22.8591 6.94599 21.9909 6.41699 21.198 6.98186L10.1299 14.8668C9.27001 15.4793 9.40526 16.6998 10.333 16.6998H13.2476V16.6772H18.9279L14.2995 18.3103L12.2591 25.559C12.0073 26.4536 12.8753 26.9826 13.6683 26.4177L24.7364 18.5329C25.5963 17.9203 25.461 16.6998 24.5333 16.6998H20.1134L22.6072 7.8406Z" fill="#050729"/>
</g>
<defs>
<clipPath id="clip0_4_154">
<rect width="140.976" height="34" fill="white" transform="translate(0.280487)"/>
</clipPath>
</defs>
</svg>
