<svg width="141" height="34" viewBox="0 0 141 34" fill="none" xmlns="http://www.w3.org/2000/svg">
<g clip-path="url(#clip0_24_36)">
<path d="M42.5228 24.3168H52.4342V21.3314H46.0455V10.0865H42.5228V24.3168Z" fill="#050729"/>
<path d="M58.3064 22.3266C56.8933 22.3266 56.1569 21.0926 56.1569 19.2417C56.1569 17.3908 56.8933 16.1369 58.3064 16.1369C59.7194 16.1369 60.4757 17.3908 60.4757 19.2417C60.4757 21.0926 59.7194 22.3266 58.3064 22.3266ZM58.3263 24.6353C61.6102 24.6353 63.7596 22.3067 63.7596 19.2417C63.7596 16.1767 61.6102 13.8481 58.3263 13.8481C55.0623 13.8481 52.873 16.1767 52.873 19.2417C52.873 22.3067 55.0623 24.6353 58.3263 24.6353Z" fill="#050729"/>
<path d="M69.4438 27.8395C70.9563 27.8395 72.2898 27.5012 73.1854 26.7051C74.0014 25.9687 74.5388 24.8541 74.5388 23.3216V14.1267H71.434V15.2214H71.3942C70.7971 14.3656 69.8816 13.8282 68.5282 13.8282C66.0006 13.8282 64.2492 15.9378 64.2492 18.9232C64.2492 22.0479 66.3788 23.7595 68.6676 23.7595C69.9015 23.7595 70.6777 23.2619 71.2748 22.5853H71.3544V23.6003C71.3544 24.8342 70.7772 25.5507 69.404 25.5507C68.3292 25.5507 67.7919 25.093 67.6127 24.5556H64.4681C64.7866 26.6852 66.6375 27.8395 69.4438 27.8395ZM69.4239 21.3513C68.2098 21.3513 67.4137 20.3562 67.4137 18.8237C67.4137 17.2713 68.2098 16.2762 69.4239 16.2762C70.7772 16.2762 71.4937 17.4305 71.4937 18.8038C71.4937 20.2368 70.8369 21.3513 69.4239 21.3513Z" fill="#050729"/>
<path d="M80.9228 22.3266C79.5097 22.3266 78.7733 21.0926 78.7733 19.2417C78.7733 17.3908 79.5097 16.1369 80.9228 16.1369C82.3359 16.1369 83.0918 17.3908 83.0918 19.2417C83.0918 21.0926 82.3359 22.3266 80.9228 22.3266ZM80.9427 24.6353C84.2263 24.6353 86.3757 22.3067 86.3757 19.2417C86.3757 16.1767 84.2263 13.8481 80.9427 13.8481C77.6787 13.8481 75.4894 16.1767 75.4894 19.2417C75.4894 22.3067 77.6787 24.6353 80.9427 24.6353Z" fill="#050729"/>
<path d="M87.3236 24.3168H90.5677V14.1267H87.3236V24.3168ZM87.3236 12.7137H90.5677V10.0865H87.3236V12.7137Z" fill="#050729"/>
<path d="M91.975 27.6803H95.2191V23.2619H95.2589C95.8958 24.1177 96.8312 24.6352 98.1447 24.6352C100.812 24.6352 102.583 22.5256 102.583 19.2217C102.583 16.1568 100.931 13.8282 98.2243 13.8282C96.8312 13.8282 95.836 14.4452 95.1395 15.3607H95.0798V14.1267H91.975V27.6803ZM97.3088 22.1275C95.9157 22.1275 95.1196 20.9931 95.1196 19.3412C95.1196 17.6893 95.836 16.4354 97.2491 16.4354C98.6423 16.4354 99.2991 17.5897 99.2991 19.3412C99.2991 21.0727 98.5428 22.1275 97.3088 22.1275Z" fill="#050729"/>
<path d="M107.865 24.6352C110.532 24.6352 112.502 23.4809 112.502 21.2518C112.502 18.6446 110.392 18.1868 108.601 17.8883C107.307 17.6495 106.153 17.5499 106.153 16.8335C106.153 16.1966 106.77 15.898 107.566 15.898C108.462 15.898 109.079 16.1767 109.198 17.0922H112.183C112.024 15.082 110.472 13.8282 107.586 13.8282C105.178 13.8282 103.188 14.9427 103.188 17.0922C103.188 19.4805 105.078 19.9581 106.85 20.2567C108.203 20.4955 109.437 20.595 109.437 21.5105C109.437 22.1673 108.82 22.5256 107.845 22.5256C106.77 22.5256 106.093 22.028 105.974 21.013H102.909C103.008 23.2619 104.879 24.6352 107.865 24.6352Z" fill="#050729"/>
<path d="M116.909 24.6154C118.322 24.6154 119.217 24.0581 119.954 23.063H120.013V24.3168H123.118V14.1268H119.874V19.8189C119.874 21.0329 119.197 21.8688 118.083 21.8688C117.048 21.8688 116.55 21.2518 116.55 20.1373V14.1268H113.326V20.814C113.326 23.0829 114.56 24.6154 116.909 24.6154Z" fill="#050729"/>
<path d="M124.53 24.3168H127.774V18.6048C127.774 17.3907 128.371 16.5349 129.386 16.5349C130.361 16.5349 130.819 17.1718 130.819 18.2664V24.3168H134.063V18.6048C134.063 17.3907 134.64 16.5349 135.675 16.5349C136.65 16.5349 137.108 17.1718 137.108 18.2664V24.3168H140.352V17.6893C140.352 15.4005 139.198 13.8282 136.889 13.8282C135.575 13.8282 134.481 14.3855 133.685 15.6194H133.645C133.127 14.5248 132.112 13.8282 130.779 13.8282C129.306 13.8282 128.331 14.5248 127.694 15.5796H127.634V14.1267H124.53V24.3168Z" fill="#050729"/>
<path fill-rule="evenodd" clip-rule="evenodd" d="M16.6695 33.4388C25.8294 33.4388 33.2548 26.0132 33.2548 16.8534C33.2548 7.69358 25.8294 0.268066 16.6695 0.268066C7.50963 0.268066 0.0841217 7.69358 0.0841217 16.8534C0.0841217 26.0132 7.50963 33.4388 16.6695 33.4388ZM19.2294 13.0824C20.6431 11.6686 20.6431 9.37638 19.2294 7.96256C17.8156 6.54876 15.5234 6.54876 14.1096 7.96256C12.6959 9.37638 12.6959 11.6686 14.1096 13.0824L16.6695 15.6423L19.2294 13.0824ZM20.4406 19.4133C21.8544 20.8272 24.1466 20.8272 25.5604 19.4133C26.9741 17.9995 26.9741 15.7073 25.5604 14.2935C24.1466 12.8798 21.8544 12.8798 20.4406 14.2935L17.8807 16.8535L20.4406 19.4133ZM19.2294 25.7443C20.6431 24.3305 20.6431 22.0383 19.2294 20.6245L16.6695 18.0646L14.1096 20.6245C12.6959 22.0383 12.6959 24.3305 14.1096 25.7443C15.5234 27.1581 17.8156 27.1581 19.2294 25.7443ZM7.7786 19.4133C6.36483 17.9995 6.36483 15.7073 7.7786 14.2935C9.19244 12.8798 11.4846 12.8798 12.8984 14.2935L15.4583 16.8535L12.8984 19.4133C11.4846 20.8272 9.19244 20.8272 7.7786 19.4133Z" fill="#050729"/>
</g>
<defs>
<clipPath id="clip0_24_36">
<rect width="140.976" height="34" fill="white"/>
</clipPath>
</defs>
</svg>
