<svg width="139" height="34" viewBox="0 0 139 34" fill="none" xmlns="http://www.w3.org/2000/svg">
<g clip-path="url(#clip0_4_143)">
<path d="M40.584 23.8776H50.4954V20.8923H44.1067V9.6474H40.584V23.8776Z" fill="#050729"/>
<path d="M56.3676 21.8874C54.9546 21.8874 54.2182 20.6534 54.2182 18.8025C54.2182 16.9516 54.9546 15.6977 56.3676 15.6977C57.7807 15.6977 58.537 16.9516 58.537 18.8025C58.537 20.6534 57.7807 21.8874 56.3676 21.8874ZM56.3875 24.1961C59.6714 24.1961 61.8209 21.8675 61.8209 18.8025C61.8209 15.7375 59.6714 13.4089 56.3875 13.4089C53.1235 13.4089 50.9343 15.7375 50.9343 18.8025C50.9343 21.8675 53.1235 24.1961 56.3875 24.1961Z" fill="#050729"/>
<path d="M67.505 27.4004C69.0176 27.4004 70.3511 27.062 71.2467 26.2659C72.0627 25.5295 72.6 24.415 72.6 22.8825V13.6876H69.4953V14.7822H69.4555C68.8584 13.9264 67.9429 13.389 66.5895 13.389C64.0619 13.389 62.3105 15.4987 62.3105 18.4841C62.3105 21.6087 64.44 23.3204 66.7288 23.3204C67.9628 23.3204 68.739 22.8228 69.336 22.1461H69.4157V23.1611C69.4157 24.3951 68.8385 25.1116 67.4652 25.1116C66.3905 25.1116 65.8531 24.6538 65.674 24.1165H62.5294C62.8479 26.246 64.6988 27.4004 67.505 27.4004ZM67.4851 20.9122C66.2711 20.9122 65.475 19.917 65.475 18.3846C65.475 16.8322 66.2711 15.837 67.4851 15.837C68.8385 15.837 69.555 16.9914 69.555 18.3646C69.555 19.7976 68.8982 20.9122 67.4851 20.9122Z" fill="#050729"/>
<path d="M78.9841 21.8874C77.571 21.8874 76.8346 20.6534 76.8346 18.8025C76.8346 16.9516 77.571 15.6977 78.9841 15.6977C80.3972 15.6977 81.1535 16.9516 81.1535 18.8025C81.1535 20.6534 80.3972 21.8874 78.9841 21.8874ZM79.004 24.1961C82.2879 24.1961 84.4376 21.8675 84.4376 18.8025C84.4376 15.7375 82.2879 13.4089 79.004 13.4089C75.74 13.4089 73.5507 15.7375 73.5507 18.8025C73.5507 21.8675 75.74 24.1961 79.004 24.1961Z" fill="#050729"/>
<path d="M85.3846 23.8776H88.6287V13.6876H85.3846V23.8776ZM85.3846 12.2745H88.6287V9.6474H85.3846V12.2745Z" fill="#050729"/>
<path d="M90.036 27.2411H93.2801V22.8228H93.3199C93.9568 23.6786 94.8922 24.1961 96.2058 24.1961C98.8727 24.1961 100.644 22.0864 100.644 18.7826C100.644 15.7176 98.9921 13.389 96.2854 13.389C94.8922 13.389 93.8971 14.006 93.2005 14.9215H93.1408V13.6876H90.036V27.2411ZM95.3699 21.6884C93.9767 21.6884 93.1806 20.5539 93.1806 18.902C93.1806 17.2501 93.8971 15.9963 95.3102 15.9963C96.7033 15.9963 97.3601 17.1506 97.3601 18.902C97.3601 20.6335 96.6038 21.6884 95.3699 21.6884Z" fill="#050729"/>
<path d="M105.926 24.1961C108.593 24.1961 110.564 23.0417 110.564 20.8126C110.564 18.2054 108.454 17.7477 106.663 17.4491C105.369 17.2103 104.215 17.1108 104.215 16.3943C104.215 15.7574 104.832 15.4589 105.628 15.4589C106.524 15.4589 107.141 15.7375 107.26 16.653H110.245C110.086 14.6429 108.534 13.389 105.648 13.389C103.24 13.389 101.249 14.5036 101.249 16.653C101.249 19.0413 103.14 19.519 104.911 19.8175C106.265 20.0564 107.499 20.1559 107.499 21.0714C107.499 21.7282 106.882 22.0864 105.907 22.0864C104.832 22.0864 104.155 21.5888 104.036 20.5738H100.971C101.07 22.8228 102.941 24.1961 105.926 24.1961Z" fill="#050729"/>
<path d="M114.97 24.1761C116.383 24.1761 117.278 23.6189 118.015 22.6238H118.074V23.8776H121.179V13.6876H117.935V19.3797C117.935 20.5937 117.258 21.4296 116.144 21.4296C115.109 21.4296 114.611 20.8126 114.611 19.6981V13.6876H111.387V20.3748C111.387 22.6437 112.621 24.1761 114.97 24.1761Z" fill="#050729"/>
<path d="M122.591 23.8776H125.835V18.1656C125.835 16.9516 126.432 16.0958 127.447 16.0958C128.422 16.0958 128.88 16.7326 128.88 17.8273V23.8776H132.124V18.1656C132.124 16.9516 132.701 16.0958 133.736 16.0958C134.711 16.0958 135.169 16.7326 135.169 17.8273V23.8776H138.413V17.2501C138.413 14.9613 137.259 13.389 134.95 13.389C133.636 13.389 132.542 13.9463 131.746 15.1803H131.706C131.188 14.0856 130.173 13.389 128.84 13.389C127.367 13.389 126.392 14.0856 125.755 15.1405H125.695V13.6876H122.591V23.8776Z" fill="#050729"/>
<path fill-rule="evenodd" clip-rule="evenodd" d="M7.43272 3.22706C6.24632 4.05663 5.17349 5.03745 4.24218 6.14155C8.04794 5.78823 12.883 6.36516 18.4965 9.17193C24.491 12.1691 29.318 12.2704 32.6773 11.6224C32.3725 10.6995 31.9887 9.81254 31.5342 8.96934C27.6886 9.37494 22.7586 8.83807 17.0131 5.9654C13.3647 4.14118 10.1486 3.38972 7.43272 3.22706ZM29.2878 5.77191C26.2509 2.37883 21.8376 0.243469 16.9255 0.243469C15.483 0.243469 14.0834 0.427656 12.7491 0.77377C14.5562 1.26686 16.476 1.98824 18.4965 2.99852C22.7031 5.10176 26.3348 5.77896 29.2878 5.77191ZM33.3956 14.8619C29.3371 15.6633 23.7328 15.4987 17.0131 12.1388C10.7309 8.9977 5.73081 9.03726 2.35857 9.78667C2.1845 9.82531 2.01454 9.86595 1.84867 9.90824C1.40716 10.8684 1.05474 11.8782 0.801865 12.9267C1.07194 12.8545 1.35103 12.786 1.63898 12.7219C5.7301 11.8128 11.5105 11.8523 18.4965 15.3453C24.7788 18.4864 29.7789 18.4469 33.1512 17.6975C33.2667 17.6718 33.3805 17.6453 33.4925 17.6179C33.5048 17.3565 33.5109 17.0933 33.5109 16.8288C33.5109 16.1633 33.4718 15.507 33.3956 14.8619ZM32.951 21.118C28.9319 21.8207 23.4909 21.551 17.0131 18.3122C10.7309 15.1711 5.73081 15.2107 2.35857 15.9601C1.61003 16.1263 0.936652 16.3289 0.34264 16.5428C0.34102 16.6379 0.34021 16.7333 0.34021 16.8288C0.34021 25.9887 7.76572 33.4142 16.9255 33.4142C24.6022 33.4142 31.0607 28.1988 32.951 21.118Z" fill="#050729"/>
</g>
<defs>
<clipPath id="clip0_4_143">
<rect width="138.488" height="34" fill="white" transform="translate(0.256104)"/>
</clipPath>
</defs>
</svg>
