<svg width="76" height="70" viewBox="0 0 76 70" fill="none" xmlns="http://www.w3.org/2000/svg">
<circle cx="58" cy="26" r="18" fill="#75F1F1"/>
<path d="M8.75002 26.2499C11.9717 26.2499 14.5834 23.6382 14.5834 20.4166C14.5834 17.1949 11.9717 14.5833 8.75002 14.5833C5.52836 14.5833 2.91669 17.1949 2.91669 20.4166C2.91669 23.6382 5.52836 26.2499 8.75002 26.2499Z" stroke="#5313CA" stroke-width="4" stroke-miterlimit="10" stroke-linecap="round" stroke-linejoin="round"/>
<path d="M61.25 26.2499C64.4717 26.2499 67.0834 23.6382 67.0834 20.4166C67.0834 17.1949 64.4717 14.5833 61.25 14.5833C58.0284 14.5833 55.4167 17.1949 55.4167 20.4166C55.4167 23.6382 58.0284 26.2499 61.25 26.2499Z" stroke="#5313CA" stroke-width="4" stroke-miterlimit="10" stroke-linecap="round" stroke-linejoin="round"/>
<path d="M55.4167 20.4166H43.75" stroke="#5313CA" stroke-width="4" stroke-miterlimit="10" stroke-linecap="round" stroke-linejoin="round"/>
<path d="M26.25 20.4166H14.5834" stroke="#5313CA" stroke-width="4" stroke-miterlimit="10" stroke-linecap="round" stroke-linejoin="round"/>
<path d="M21.875 48.125V53.9583C21.875 55.7375 20.7959 57.2833 19.2792 57.925C18.725 58.1875 18.1417 58.3333 17.5 58.3333H11.6667C9.24585 58.3333 7.29169 56.3792 7.29169 53.9583V48.125C7.29169 45.7042 9.24585 43.75 11.6667 43.75H17.5C19.9209 43.75 21.875 45.7042 21.875 48.125Z" stroke="#5313CA" stroke-width="4" stroke-miterlimit="10" stroke-linecap="round" stroke-linejoin="round"/>
<path d="M62.7083 48.125V53.9583C62.7083 56.3792 60.7542 58.3333 58.3333 58.3333H52.5C51.8583 58.3333 51.275 58.1875 50.7208 57.925C49.2042 57.2833 48.125 55.7375 48.125 53.9583V48.125C48.125 45.7042 50.0792 43.75 52.5 43.75H58.3333C60.7542 43.75 62.7083 45.7042 62.7083 48.125Z" stroke="#5313CA" stroke-width="4" stroke-miterlimit="10" stroke-linecap="round" stroke-linejoin="round"/>
<path d="M43.75 16.0416V24.7916C43.75 27.1833 41.7667 29.1666 39.375 29.1666H30.625C28.2333 29.1666 26.25 27.1833 26.25 24.7916V16.0416C26.25 13.65 28.2333 11.6666 30.625 11.6666H39.375C41.7667 11.6666 43.75 13.65 43.75 16.0416Z" stroke="#5313CA" stroke-width="4" stroke-miterlimit="10" stroke-linecap="round" stroke-linejoin="round"/>
<path d="M43.75 22.5458C50.6625 26.0458 55.4167 33.5708 55.4167 42.2917C55.4167 42.7875 55.3875 43.2542 55.3292 43.75" stroke="#5313CA" stroke-width="4" stroke-miterlimit="10" stroke-linecap="round" stroke-linejoin="round"/>
<path d="M14.6709 43.75C14.6125 43.2542 14.5834 42.7875 14.5834 42.2917C14.5834 33.5708 19.3375 26.0458 26.25 22.5458" stroke="#5313CA" stroke-width="4" stroke-miterlimit="10" stroke-linecap="round" stroke-linejoin="round"/>
</svg>
