<svg width="76" height="70" viewBox="0 0 76 70" fill="none" xmlns="http://www.w3.org/2000/svg">
<circle cx="57.6666" cy="32" r="18" fill="#75F1F1"/>
<path d="M58.3333 35.5832V40.5417C58.3333 49.7292 53.0833 53.6667 45.2083 53.6667H18.9583C11.0833 53.6667 5.83334 49.7292 5.83334 40.5417V24.7916C5.83334 15.6041 11.0833 11.6666 18.9583 11.6666H26.8333C26.4542 12.775 26.25 14 26.25 15.3125V26.6875C26.25 29.5167 27.1833 31.9083 28.8458 33.5708C30.5083 35.2333 32.9 36.1667 35.7292 36.1667V40.2209C35.7292 41.7084 37.4208 42.6123 38.675 41.7957L47.1042 36.1667H54.6875C56 36.1667 57.225 35.9623 58.3333 35.5832Z" stroke="#5313CA" stroke-width="4" stroke-miterlimit="10" stroke-linecap="round" stroke-linejoin="round"/>
<path d="M64.1667 15.3125V26.6876C64.1667 31.0334 61.95 34.2999 58.3333 35.5832C57.225 35.9624 56 36.1668 54.6875 36.1668H47.1042L38.675 41.7957C37.4208 42.6124 35.7292 41.7085 35.7292 40.221V36.1668C32.9 36.1668 30.5083 35.2334 28.8458 33.5709C27.1833 31.9084 26.25 29.5168 26.25 26.6876V15.3125C26.25 14 26.4542 12.775 26.8333 11.6667C28.1167 8.05004 31.3833 5.83337 35.7292 5.83337H54.6875C60.375 5.83337 64.1667 9.62504 64.1667 15.3125Z" stroke="#5313CA" stroke-width="4" stroke-miterlimit="10" stroke-linecap="round" stroke-linejoin="round"/>
<path d="M21.5833 64.1666H42.5833" stroke="#5313CA" stroke-width="4" stroke-miterlimit="10" stroke-linecap="round" stroke-linejoin="round"/>
<path d="M32.0833 53.6667V64.1667" stroke="#5313CA" stroke-width="4" stroke-miterlimit="10" stroke-linecap="round" stroke-linejoin="round"/>
<path d="M53.9452 21.1458H53.9715" stroke="#5313CA" stroke-width="4" stroke-linecap="round" stroke-linejoin="round"/>
<path d="M45.7791 21.1458H45.8054" stroke="#5313CA" stroke-width="4" stroke-linecap="round" stroke-linejoin="round"/>
<path d="M37.6116 21.1458H37.6378" stroke="#5313CA" stroke-width="4" stroke-linecap="round" stroke-linejoin="round"/>
</svg>
