<svg width="77" height="70" viewBox="0 0 77 70" fill="none" xmlns="http://www.w3.org/2000/svg">
<circle cx="58.3334" cy="26" r="18" fill="#75F1F1"/>
<path d="M34.2417 51.7708H51.5083C51.2458 52.0041 50.9833 52.2083 50.7208 52.4416L38.2666 61.7749C34.1541 64.8374 27.4458 64.8374 23.3042 61.7749L10.8208 52.4416C8.07917 50.4 5.83331 45.8791 5.83331 42.4666V20.8541C5.83331 17.2957 8.54583 13.3582 11.8708 12.1041L26.3958 6.64993C28.7875 5.74576 32.7542 5.74576 35.1458 6.64993L49.6417 12.1041C52.4125 13.1541 54.775 16.0708 55.5041 19.0458H34.2125C33.5708 19.0458 32.9875 19.075 32.4333 19.075C27.0375 19.3958 25.6375 21.3499 25.6375 27.5041V43.3416C25.6666 50.0499 27.3875 51.7708 34.2417 51.7708Z" stroke="#5313CA" stroke-width="4" stroke-linecap="round" stroke-linejoin="round"/>
<path d="M25.6666 32.725H64.1666" stroke="#5313CA" stroke-width="4" stroke-miterlimit="10" stroke-linecap="round" stroke-linejoin="round"/>
<path d="M64.1666 27.4751V43.6625C64.1083 50.1375 62.3291 51.7417 55.5916 51.7417H34.2416C27.3875 51.7417 25.6666 50.0208 25.6666 43.2833V27.4459C25.6666 21.3209 27.0666 19.3667 32.4625 19.0167C33.0166 19.0167 33.6 18.9875 34.2416 18.9875H55.5916C62.4458 19.0167 64.1666 20.7084 64.1666 27.4751Z" stroke="#5313CA" stroke-width="4" stroke-linecap="round" stroke-linejoin="round"/>
<path d="M33.0167 44.5083H36.8958" stroke="#5313CA" stroke-width="4" stroke-miterlimit="10" stroke-linecap="round" stroke-linejoin="round"/>
<path d="M43.0208 44.5083H52.5583" stroke="#5313CA" stroke-width="4" stroke-miterlimit="10" stroke-linecap="round" stroke-linejoin="round"/>
</svg>
